<svg width="20" height="20" viewBox="0 0 20 20" fill="none" xmlns="http://www.w3.org/2000/svg">
<g clip-path="url(#clip0_161_3538)">
<path d="M19.1288 8.71821H14.9557L11.1398 2.81726C10.9743 2.56539 10.6955 2.43945 10.4167 2.43945C10.1379 2.43945 9.8591 2.56539 9.69357 2.82625L5.87766 8.71821H1.70456C1.22539 8.71821 0.833344 9.123 0.833344 9.61774C0.833344 9.6987 0.842056 9.77966 0.868192 9.86062L3.08107 18.1993C3.28145 18.9549 3.95228 19.5126 4.7538 19.5126H16.0796C16.8811 19.5126 17.5519 18.9549 17.761 18.1993L19.9739 9.86062L20 9.61774C20 9.123 19.608 8.71821 19.1288 8.71821ZM10.4167 4.94016L12.8561 8.71821H7.97728L10.4167 4.94016ZM16.0796 17.7136L4.76251 17.7226L2.84584 10.5173H17.9962L16.0796 17.7136ZM10.4167 12.3163C9.45834 12.3163 8.67425 13.1259 8.67425 14.1154C8.67425 15.1049 9.45834 15.9145 10.4167 15.9145C11.375 15.9145 12.1591 15.1049 12.1591 14.1154C12.1591 13.1259 11.375 12.3163 10.4167 12.3163Z" fill="white"/>
</g>
<defs>
<clipPath id="clip0_161_3538">
<rect width="20" height="19.5122" fill="white"/>
</clipPath>
</defs>
</svg>
